<svg xmlns="http://www.w3.org/2000/svg" width="499.655" height="556.41"><path d="M498.655 110.36c-.61-3.75-21.15-89.59-104.72-109.94a10.7 10.7 0 0 0-6.53.24L333.475 17c-5.34 1.81-8.68 5.58-8.86 10.9l-10.52 130.62a14.253 14.253 0 0 0 2.22 8.47c.99.97 19.89 25.5 57.74 41.61-3.64 28.23-22.23 121.43-112.92 193.03-13.3-9.97-41.48-30.68-71-41.73a12.644 12.644 0 0 0-13.04 2.45l-96.14 94.51a11.74 11.74 0 0 0-2.71 13.43c4.4 11.02 18.41 48.39 29.34 59.16 10.13 10.39 65.26 42.36 136.97 18.02 21.33-7.24 44.23-19.62 68.08-38.9 11.44-7.18 129.99-88.23 173.95-260.48 11.09-43.27 12.86-92.58 13.08-134.78-1-.98-.81-2.36-1.01-2.95zm-150.06-72.17l33-9.88c4.65 23.44 9.83 79.61-20.75 145.28a121.064 121.064 0 0 1-22.03-18.19zm-160.52 348.74c7.14 3.5 14.27 7.01 20.82 10.71-11.38 22.95-38.49 65.73-93.15 99.42-3.99-7.86-8.18-18.29-11.98-27.53zm285.68-272.07c-.03 40.82-2 87.57-12.31 127.28-42.41 167.12-162.75 244.83-163.74 245.82-.59.2-1.18.4-.98.99-78.85 65.6-143.25 39.41-164.47 27.52 56.03-35.47 85.31-79.64 98.26-105.76 12.89 8.79 22.03 16.22 22.03 16.22 4.56 3.72 10.7 4.27 15.43.69 125.61-93.33 131.79-221.16 131.76-227.07a12.669 12.669 0 0 0-8.16-12.37c-2.97-.97-5.35-2.14-8.32-3.1 30.97-66.47 28.95-123.05 24.46-153.79 48.17 23.15 63.62 74.52 66.04 83.57zm-212.66 185.41c24.3-8.25 37.64-35.16 29.42-59.36a46.936 46.936 0 0 0-88.89 30.17c8.21 24.2 35.17 37.44 59.47 29.19zm-22.04-64.93a22.136 22.136 0 0 1 27.76 13.62 21.907 21.907 0 0 1-41.49 14.08 22.133 22.133 0 0 1 13.73-27.7zm-27.96-107.69a12.53 12.53 0 0 0-15.86-7.78c-35.16 11.28-63.35 35.33-79.43 67.78-16.67 32.65-19.48 69.15-8.26 104.18a12.534 12.534 0 0 0 15.86 7.78 12.539 12.539 0 0 0 7.85-15.83 110.916 110.916 0 0 1 72.2-139.71 14.048 14.048 0 0 0 7.64-16.42zm-33.31-109.81c-1.18.4-2.37.8-3.55 1.2C42.08 63.9-30.695 207.75 12.407 340.58a12.532 12.532 0 0 0 15.86 7.78 12.531 12.531 0 0 0 7.845-15.83c-39.3-121.61 27.4-252.21 149.493-291.67a12.542 12.542 0 0 0 7.84-15.83c-2-5.9-9.14-9.41-15.66-7.19z" fill="#323232" fill-rule="evenodd" opacity=".07"/></svg>