<svg xmlns="http://www.w3.org/2000/svg"><symbol id="icon-fb" viewBox="0 0 12.1 27"><path fill-rule="evenodd" d="M12.11 8.38H7.46V5.59c0-1.05 1.2-.94 1.68-.94s2.97.01 2.97.01V.01H7.46c-4.45 0-4.65 3.37-4.65 5.58v2.79H.01v4.65h2.8v13.96h4.65V13.03h3.72z"/></symbol><symbol id="icon-ok" viewBox="0 0 18.41 29.03"><path fill-rule="evenodd" d="M15.6 20.28a23.746 23.746 0 0 1-2.95.88l-.01-.01s-.01.01.01.01l4.66 4.22-.02.04a2.146 2.146 0 0 1 .49 1.35 2.338 2.338 0 0 1-2.41 2.26 2.532 2.532 0 0 1-1.17-.29v-.01a1.557 1.557 0 0 1-.28-.16l-.04.02-4.51-4.23-4.68 4.23-.04-.02a2.448 2.448 0 0 1-1.44.46A2.338 2.338 0 0 1 .8 26.77a2.159 2.159 0 0 1 .48-1.35l-.02-.04 4.68-4.23S1.88 20.51.48 18.7a.87.87 0 0 1-.09-.11 3.256 3.256 0 0 1-.21-.39 1.224 1.224 0 0 1-.09-.27c-.01-.04-.02-.08-.03-.11a1.046 1.046 0 0 1-.04-.17 1.788 1.788 0 0 1 1.2-2.08 2.333 2.333 0 0 1 1.06-.25 2.715 2.715 0 0 1 .49.05 3.363 3.363 0 0 1 1.14.24 9.851 9.851 0 0 0 5.14 1.46 13.972 13.972 0 0 0 5.46-1.32 2.979 2.979 0 0 1 1.11-.37 2.242 2.242 0 0 1 .52-.06.375.375 0 0 1 .11.01c.05 0 .08-.01.13-.01a1 1 0 0 1 .52.13 2.127 2.127 0 0 1 1.5 1.9v.01s.32 1.89-2.8 2.92zm-6.31-4.96a7.677 7.677 0 1 1 8.18-7.66 7.932 7.932 0 0 1-8.18 7.66zm0-10.8a3.142 3.142 0 1 0 3.35 3.14 3.253 3.253 0 0 0-3.35-3.14z"/></symbol><symbol id="icon-vk" viewBox="0 0 27 27"><path fill-rule="evenodd" d="M19.86 13.92a4.294 4.294 0 0 0-2.32-1.24v-.08a3.393 3.393 0 0 0 1.58-1.31 3.708 3.708 0 0 0 .57-2.04 3.556 3.556 0 0 0-.42-1.74 2.962 2.962 0 0 0-1.25-1.2A6.146 6.146 0 0 0 16 6a16.165 16.165 0 0 0-2 0H8v15h6c1.08 0 2.43.01 3.17-.06a3.916 3.916 0 0 0 1.93-.98 4.255 4.255 0 0 0 1.19-1.46 4.569 4.569 0 0 0 .44-2.04 3.592 3.592 0 0 0-.87-2.54zm-4.33-2.98a1.3 1.3 0 0 1-.65.61 2.281 2.281 0 0 1-.84.22c-.27.01-.74.02-1.41.02h-.49v-3.3h.27c.7 0 1.23 0 1.58.01a2.547 2.547 0 0 1 .92.19 1.191 1.191 0 0 1 .6.57 1.786 1.786 0 0 1 .19.78 2.293 2.293 0 0 1-.17.9zm.91 6.45a1.5 1.5 0 0 1-.78.68 3.272 3.272 0 0 1-1.19.28c-.39.02-1.1.02-2.12.02h-.21v-3.91h.72c.7 0 1.26.01 1.68.02a3.1 3.1 0 0 1 .98.15 1.826 1.826 0 0 1 .88.62 1.946 1.946 0 0 1 .29 1.13 1.966 1.966 0 0 1-.25 1.01zM5.312 0H21.69A5.313 5.313 0 0 1 27 5.31v16.38A5.313 5.313 0 0 1 21.69 27H5.312a5.312 5.312 0 0 1-5.311-5.31V5.31A5.312 5.312 0 0 1 5.312 0z"/></symbol></svg>