<svg xmlns="http://www.w3.org/2000/svg"><symbol id="icon-arrow-up" viewBox="0 0 36 22"><path fill="#0075b8" fill-rule="evenodd" d="M31.72 21.252l3.535-3.536-17-17-3.536 3.536z"/><path data-name="Shape 31 copy" fill="#0075b8" fill-rule="evenodd" d="M4.255 21.252L.719 17.717l17-17 3.535 3.536z"/></symbol><symbol id="icon-book" viewBox="0 0 38 54"><path fill="#a5b1bc" fill-rule="evenodd" d="M30.152 50.35a1.162 1.162 0 0 1-.841-.361 1.182 1.182 0 0 1 .839-2l3.007.011c.989 0 1.4-.005 1.667-.012a6.951 6.951 0 0 1-.007-6.684c-3.027-.005-29.21 0-29.21 0a3.338 3.338 0 0 0 0 6.676c.66-.018 1.578-.025 2.623-.025 1.136 0 6.175.03 7.244.03l1.283-.005a1.178 1.178 0 0 1 .02 2.356h-1.361c-1.1 0-6.155-.028-7.261-.028-1.014 0-1.894.005-2.513.025a5.694 5.694 0 0 1-.036-11.388H26.57c3.54 0 7.012 0 10.286.007a1.147 1.147 0 0 1 .774.3 1.187 1.187 0 0 1 .087 1.662 5.563 5.563 0 0 0-.007 7.447 1.194 1.194 0 0 1 .3.794 1.171 1.171 0 0 1-1.16 1.171l-.537.005c-.4.009-1.055.021-2.867.021zm-30.17-5.43V6.611A6.572 6.572 0 0 1 6.5 0h27.677a3.872 3.872 0 0 1 3.84 3.894v36.5h-2.323v-36.5a1.512 1.512 0 0 0-1.517-1.54H6.5a4.231 4.231 0 0 0-4.2 4.257V44.92H-.018zm27.045 9.058a1.14 1.14 0 0 1-.814-.345l-2.75-2.791-2.752 2.791a1.138 1.138 0 0 1-.813.345 1.175 1.175 0 0 1-1.167-1.178v-7.878H18.1a1.178 1.178 0 0 1-.1-2.354h10.819a1.178 1.178 0 0 1 .017 2.356H28.2V52.8a1.175 1.175 0 0 1-1.172 1.178zm-5.976-4.02l1.59-1.613a1.15 1.15 0 0 1 1.643 0l1.588 1.613v-5.036h-4.82v5.036zM6.232 37.675V3.623h2.321v34.052H6.232z"/></symbol><symbol id="icon-copyright" viewBox="0 0 52 52"><path fill="#a5b1bc" fill-rule="evenodd" d="M26 52.009A26 26 0 1 1 52 26a26.037 26.037 0 0 1-26 26.009zm0-49.234a23.231 23.231 0 1 0 23.225 23.231A23.318 23.318 0 0 0 26 2.775zM26 39.1a13.1 13.1 0 1 1 8.566-23.01l-1.95 1.951a10.349 10.349 0 1 0 0 15.923l1.951 1.952a12.979 12.979 0 0 1-8.55 3.183H26z"/></symbol><symbol id="icon-fb" viewBox="0 0 32 32"><path fill="#fff" fill-rule="evenodd" d="M19.99 12.962h-3.074v-1.656c0-.624.8-.559 1.11-.559s1.964.007 1.964.007V7.993h-3.074c-2.938 0-3.074 2-3.074 3.313v1.656H12v2.761h1.845v8.282h3.074v-8.282h2.459z"/></symbol><symbol id="icon-file" viewBox="0 0 38 52"><path fill="#a5b1bc" fill-rule="evenodd" d="M1.046.009A1.17 1.17 0 0 0 0 1.19v49.621a1.167 1.167 0 0 0 1.152 1.181h35.7a1.167 1.167 0 0 0 1.152-1.181V10.642a1.2 1.2 0 0 0-.342-.849L28.454.341a1.134 1.134 0 0 0-.81-.332H1.154a1.04 1.04 0 0 0-.108 0zm1.26 2.363h24.186v8.27a1.167 1.167 0 0 0 1.152 1.181h8.062V49.63h-33.4V2.371zM28.8 4.033l5.286 5.427H28.8V4.033zM6.229 13.6a1.183 1.183 0 0 0 .108 2.363h12.669a1.182 1.182 0 0 0 .033-2.363H6.337a.326.326 0 0 0-.108 0zm0 8.5a1.183 1.183 0 0 0 .108 2.363h25.338a1.182 1.182 0 0 0 .032-2.363H6.337a1.024 1.024 0 0 0-.108-.007zm0 8.5a1.183 1.183 0 0 0 .108 2.363h25.338a1.182 1.182 0 0 0 .032-2.363H6.337a.362.362 0 0 0-.108-.009zm0 8.5a1.183 1.183 0 0 0 .108 2.363h25.338a1.182 1.182 0 0 0 .032-2.363H6.337a1.024 1.024 0 0 0-.108-.01z"/></symbol><symbol id="icon-google-plus" viewBox="0 0 32 32"><path data-name="g+" fill="#fff" fill-rule="evenodd" d="M17.879 9.011H12.8s-3.852.6-3.852 3.847a3.823 3.823 0 0 0 3.2 3.761h.492a3.369 3.369 0 0 0-.082.684 1.926 1.926 0 0 0 .246.77s-2.7 0-3.934 1.538-1.393 3.419.9 4.7 7.212.854 7.95-2.479-2.7-4.188-2.787-5.214 2.213-1.453 2.213-3.59-.746-2.478-.746-2.478-.164-.085 0-.085h.328s.082.085.41-.171.738-.6.738-.6a1.175 1.175 0 0 0 .246-.342 1.178 1.178 0 0 0-.243-.341zm-5.327 1.368a1.682 1.682 0 0 0-1.311 1.881c0 1.709 1.229 3.163 2.213 3.163s1.393-1.368 1.393-2.052-.738-2.992-2.295-2.992zm.574 8.8s-2.868.342-2.868 2.223 2.459 2.051 2.787 2.051a3.092 3.092 0 0 0 2.295-.684 2.239 2.239 0 0 0 .492-1.881 6.808 6.808 0 0 0-1.721-1.539 3.812 3.812 0 0 0-.985-.166zm5.074-3.662h6.245a.907.907 0 0 1 .568.591v.6a.9.9 0 0 1-.568.587H18.2a.787.787 0 0 1-.481-.587l-.086-.6a.907.907 0 0 1 .567-.591zm3.974-2.366v6.506a.906.906 0 0 1-.568.591h-.571a.906.906 0 0 1-.568-.591v-6.506a.905.905 0 0 1 .568-.591h.565a.905.905 0 0 1 .571.591z"/></symbol><symbol id="icon-hamburger" viewBox="0 0 15 13"><path fill="#fff" fill-rule="evenodd" d="M0 13v-3h15v3H0z"/><path data-name="Shape 525 copy" fill="#fff" fill-rule="evenodd" d="M0 8V5h15v3H0z"/><path data-name="Shape 525 copy 2" fill="#fff" fill-rule="evenodd" d="M0 3V0h15v3H0z"/></symbol><symbol id="icon-job-offer" viewBox="0 0 87 79"><path fill="#a5b1bc" fill-rule="evenodd" d="M19.366 78.973A19.383 19.383 0 0 1 17.427 40.3l.633-.063V18.373a7.432 7.432 0 0 1 7.333-7.336H40.16V7.319a7.432 7.432 0 0 1 7.333-7.336h10.045a7.432 7.432 0 0 1 7.333 7.336v3.719h14.766a7.432 7.432 0 0 1 7.333 7.336v36.178a7.433 7.433 0 0 1-7.333 7.336H38.6l-.09.6a19.5 19.5 0 0 1-19.144 16.485zm0-36.179a16.783 16.783 0 1 0 16.776 16.783 16.8 16.8 0 0 0-16.776-16.783zm1.6-25.819a4.133 4.133 0 0 0-.292 1.4V40.24l.631.06a19.487 19.487 0 0 1 17.418 18.3l.033.669h40.881a4.975 4.975 0 0 0 4.722-4.724V18.373a4.124 4.124 0 0 0-.292-1.4l-.541-1.513-10.758 20.583a1.3 1.3 0 0 1-.575.578l-6.023 3.013a1.311 1.311 0 0 1-.6.145h-8.735v1.709A3.36 3.36 0 0 1 53.52 44.8h-2.009a3.36 3.36 0 0 1-3.311-3.312v-1.709h-8.743a1.309 1.309 0 0 1-.591-.143l-6.032-3.017a1.291 1.291 0 0 1-.566-.569L21.5 15.461zm29.841 25.216h3.416v-7.437h-3.416v7.437zm2.713-10.049a3.36 3.36 0 0 1 3.315 3.316v1.709h8.372l5.436-2.72 10.739-20.495-.907-.192a3.94 3.94 0 0 0-.837-.11H25.393a3.971 3.971 0 0 0-.836.11l-.908.193 10.739 20.5 5.437 2.72H48.2v-1.715a3.36 3.36 0 0 1 3.315-3.316h2.005zM47.493 2.6a5.048 5.048 0 0 0-4.722 4.723v3.719h19.488V7.319A5.048 5.048 0 0 0 57.538 2.6H47.493zM28.435 69.941a1.294 1.294 0 0 1-.937-.4L22.259 64.3l-.475.3a8.259 8.259 0 0 1-4.427 1.3 8.339 8.339 0 1 1 7.065-3.9l-.3.475 5.2 5.2a1.323 1.323 0 0 1 .023 1.9 1.3 1.3 0 0 1-.91.366zm-11.078-18.1a5.729 5.729 0 1 0 5.726 5.728 5.666 5.666 0 0 0-5.726-5.73zm11.078 18.1a1.294 1.294 0 0 1-.937-.4L22.259 64.3l-.475.3a8.259 8.259 0 0 1-4.427 1.3 8.339 8.339 0 1 1 7.065-3.9l-.3.475 5.2 5.2a1.323 1.323 0 0 1 .023 1.9 1.3 1.3 0 0 1-.91.366zm-11.078-18.1a5.729 5.729 0 1 0 5.726 5.728 5.666 5.666 0 0 0-5.726-5.73zm11.078 18.1a1.294 1.294 0 0 1-.937-.4L22.259 64.3l-.475.3a8.259 8.259 0 0 1-4.427 1.3 8.339 8.339 0 1 1 7.065-3.9l-.3.475 5.2 5.2a1.323 1.323 0 0 1 .023 1.9 1.3 1.3 0 0 1-.91.366zm-11.078-18.1a5.729 5.729 0 1 0 5.726 5.728 5.666 5.666 0 0 0-5.726-5.73z"/></symbol><symbol id="icon-magnifier" viewBox="0 0 49 48"><path fill="#a5b1bc" fill-rule="evenodd" d="M4.847 48a4.686 4.686 0 0 1-3.455-8.026l4.215-4.04V1.139A1.094 1.094 0 0 1 6.773-.006h15.213a1.952 1.952 0 0 1 1 .422l2.434 3.761h22.427a1.1 1.1 0 0 1 1.167 1.145v36.056a1.107 1.107 0 0 1-1.167 1.145H12.415L8.3 46.661A5.339 5.339 0 0 1 4.847 48zm3.942-10.9a3.026 3.026 0 0 0-1.821.716l-3.94 3.871a2.457 2.457 0 0 0 0 3.474 2.5 2.5 0 0 0 1.769.7 2.5 2.5 0 0 0 1.768-.7l3.955-3.884a2.457 2.457 0 0 0 0-3.473 2.714 2.714 0 0 0-1.731-.704zm37.891 3.232V11.747H28.375a1.182 1.182 0 0 1-.938-.564L21.5 2.284H8.143v32.624a3.646 3.646 0 0 1 .757-.054h.042l3.12-3.064a11.963 11.963 0 0 1-1.587-5.85 12.163 12.163 0 0 1 12.221-12 12.614 12.614 0 0 1 8.623 3.528 11.636 11.636 0 0 1 3.6 8.475 12.159 12.159 0 0 1-3.592 8.469 11.9 11.9 0 0 1-8.627 3.53 12.531 12.531 0 0 1-5.957-1.558l-3.12 3.065a4.344 4.344 0 0 1-.064.883H46.68zm-35.3-4.762a4.738 4.738 0 0 1 1.5 1.487l1.891-1.857a9.428 9.428 0 0 0-.336-.285c-.155-.127-.312-.255-.467-.407a8.308 8.308 0 0 1-.723-.774zm11.215-19.441a9.913 9.913 0 0 0-6.995 2.844 9.527 9.527 0 0 0-2.2 10.417 9.924 9.924 0 0 0 16.179 3.416 9.761 9.761 0 0 0-6.984-16.677zM46.68 9.456V6.468H26.834l2.028 2.988H46.68zM17.422 22.005a1.168 1.168 0 0 1-.818-.342 1.1 1.1 0 0 1 0-1.606 8.589 8.589 0 0 1 11.98 0 1.1 1.1 0 0 1 0 1.606 1.149 1.149 0 0 1-1.636 0 6 6 0 0 0-4.354-1.749 6 6 0 0 0-4.355 1.749 1.167 1.167 0 0 1-.817.342z"/></symbol><symbol id="icon-map--red" viewBox="0 0 11 13"><path data-name="Shape 10 copy" fill="#ff1037" fill-rule="evenodd" d="M1.614 1.611a5.491 5.491 0 0 1 7.773 0 5.477 5.477 0 0 1 0 7.764 3 3 0 0 1-.222.222l-3.228 3.225a.644.644 0 0 1-.888 0l-3.48-3.476a5.5 5.5 0 0 1 .044-7.735zM2.5 2.5a4.228 4.228 0 0 0-.03 5.96l3.02 3.017L8.261 8.71c.089-.074.163-.148.239-.221a4.238 4.238 0 0 0-6-5.989zm3.007 1.167A1.826 1.826 0 1 1 3.671 5.5a1.831 1.831 0 0 1 1.836-1.833z"/></symbol><symbol id="icon-map" viewBox="0 0 11 13"><path data-name="Shape 10 copy" fill="#fff" fill-rule="evenodd" d="M1.614 1.611a5.491 5.491 0 0 1 7.773 0 5.477 5.477 0 0 1 0 7.764 3 3 0 0 1-.222.222l-3.228 3.225a.644.644 0 0 1-.888 0l-3.48-3.476a5.5 5.5 0 0 1 .044-7.735zM2.5 2.5a4.228 4.228 0 0 0-.03 5.96l3.02 3.017L8.261 8.71c.089-.074.163-.148.239-.221a4.238 4.238 0 0 0-6-5.989zm3.007 1.167A1.826 1.826 0 1 1 3.671 5.5a1.831 1.831 0 0 1 1.836-1.833z"/></symbol><symbol id="icon-scales" viewBox="0 0 52 52"><path fill="#a5b1bc" fill-rule="evenodd" d="M9.027 52.005a1.114 1.114 0 1 1 0-2.227h33.862a1.114 1.114 0 1 1 0 2.227H9.027zM18.1 47.25a1.116 1.116 0 0 1-1.116-1.113v-.655a5.514 5.514 0 0 1 5.25-5.523V7.611a16.936 16.936 0 0 0-9.172 3.6 10.547 10.547 0 0 1-3.372 1.85l6.488 14.045a1.14 1.14 0 0 1 .046.131l.005.107v.079a1.072 1.072 0 0 1 0 .125v.454a8.068 8.068 0 0 1-8.111 7.869h-.237A8.118 8.118 0 0 1 0 27.539a.865.865 0 0 1 0-.122v-.142a.833.833 0 0 1 .05-.162l6.392-14a16.316 16.316 0 0 1-3.852-1.43 1.114 1.114 0 0 1 .992-2 10.569 10.569 0 0 0 4.43 1.395h.149c1.325-.031 2.238-.653 3.617-1.664a19.443 19.443 0 0 1 10.869-4.075A3.712 3.712 0 0 1 27.794.471a3.7 3.7 0 0 1 1.521 4.868A19.442 19.442 0 0 1 40.143 9.4c1.32.959 2.264 1.644 3.629 1.676h.141a10.661 10.661 0 0 0 4.431-1.394 1.114 1.114 0 1 1 .989 2 16.253 16.253 0 0 1-3.849 1.418l6.41 14.026a1.118 1.118 0 0 1 .046.129v.148c.016.025.06.107.06.107v.035a8.116 8.116 0 0 1-7.882 7.866h-.236a8.068 8.068 0 0 1-8.111-7.87.99.99 0 0 1 0-.13v-.136a.833.833 0 0 1 .049-.162l6.418-14.049a10.552 10.552 0 0 1-3.374-1.851 16.935 16.935 0 0 0-9.2-3.608v32.354a5.514 5.514 0 0 1 5.25 5.523v.655a1.116 1.116 0 0 1-1.116 1.113H18.1zm14.559-2.2a3.3 3.3 0 0 0-3.284-2.868h-6.831a3.3 3.3 0 0 0-3.291 2.868h13.409zm-5.22-5.1V7.46c-.475-.03-.966-.03-1.483-.03-.287 0-.565.01-.837.02-.219.008-.434.016-.646.018v32.486h2.966zm10.653-11.267a5.872 5.872 0 0 0 11.531 0H38.092zm-35.773-.039a5.878 5.878 0 0 0 5.75 4.756H8.2v.037a5.861 5.861 0 0 0 5.659-4.8H2.319zm46.791-2.182l-5.269-11.6-5.269 11.6H49.11zm-35.772 0l-5.27-11.6-5.263 11.6h10.533zm12.62-24.239A1.48 1.48 0 1 0 27.441 3.7a1.483 1.483 0 0 0-1.483-1.477z"/></symbol><symbol id="icon-scroll" viewBox="0 0 55 48"><path fill="#a5b1bc" fill-rule="evenodd" d="M8.1 48.006a7.992 7.992 0 0 1-8.108-7.853V35.21a1.218 1.218 0 0 1 1.236-1.2h6.946V7.006a2.828 2.828 0 0 1 2.87-2.779h26.092l.378.044.321-.292a6.879 6.879 0 0 1 6.281-3.992 6.768 6.768 0 0 1 6.87 6.647 6.414 6.414 0 0 1-.392 2.119l-.1.293.226.217 4.087 5.978a1.169 1.169 0 0 1 .022 1.278 1.234 1.234 0 0 1-1.046.572l-2.992-.3-.872 2.65a1.216 1.216 0 0 1-1.014.818h-.053a1.3 1.3 0 0 1-1.151-.533l-1.933-2.875V38.9a9.247 9.247 0 0 1-8.024 9 1.687 1.687 0 0 1-.517.113H8.1zm-5.638-7.855A5.556 5.556 0 0 0 8.1 45.612h23.214l-.6-.787a7.646 7.646 0 0 1-1.6-4.675V36.4H2.462v3.746zm8.1-29.729l.086.41v23.182h19.705a1.218 1.218 0 0 1 1.237 1.2v4.944a5.49 5.49 0 0 0 5.161 5.413A6.828 6.828 0 0 0 43.3 38.9V16.849l-1.94 2.871a1.25 1.25 0 0 1-1.036.545 1.288 1.288 0 0 1-1.18-.832l-.872-2.647s-2.875.3-2.885.3a1.291 1.291 0 0 1-1.155-.564 1.177 1.177 0 0 1 .02-1.28l3.757-5.589-.117-.247a6.48 6.48 0 0 1-.6-2.323l-.032-.46H10.531zm38.12 1.142a6.869 6.869 0 0 1-1.973 1.222l-.569.225 2.213 3.289.328-.988a1.31 1.31 0 0 1 1.247-1.02l1.066.11-.263-.842-1.608-2.385zm-9.55 2.736a1.236 1.236 0 0 1 1.19.832l.323.991.651-.685 1.528-2.27-.656-.188a6.873 6.873 0 0 1-2.117-1.012l-.435-.311-1.871 2.778zm4.984-11.921a4.441 4.441 0 0 0-3.108 1.249 4.16 4.16 0 0 0-1.285 3.007 4.4 4.4 0 0 0 8.791 0 4.333 4.333 0 0 0-4.398-4.256z"/></symbol><symbol id="icon-search" viewBox="0 0 14 14"><path data-name="Shape 17 copy" fill="#69859a" fill-rule="evenodd" d="M13.039 14a.971.971 0 0 1-.7-.3L9.91 11.282l-.356.225a6.222 6.222 0 1 1 2.93-5.262 6.193 6.193 0 0 1-.953 3.313l-.224.355 2.4 2.4a.988.988 0 0 1 .017 1.418.974.974 0 0 1-.685.269zM6.237 1.959a4.242 4.242 0 0 0-4.29 4.285 4.241 4.241 0 0 0 4.29 4.284 4.241 4.241 0 0 0 4.29-4.284 4.242 4.242 0 0 0-4.29-4.285zM13.039 14a.971.971 0 0 1-.7-.3L9.91 11.282l-.356.225a6.222 6.222 0 1 1 2.93-5.262 6.193 6.193 0 0 1-.953 3.313l-.224.355 2.4 2.4a.988.988 0 0 1 .017 1.418.974.974 0 0 1-.685.269zM6.237 1.959a4.242 4.242 0 0 0-4.29 4.285 4.241 4.241 0 0 0 4.29 4.284 4.241 4.241 0 0 0 4.29-4.284 4.242 4.242 0 0 0-4.29-4.285zM13.039 14a.971.971 0 0 1-.7-.3L9.91 11.282l-.356.225a6.222 6.222 0 1 1 2.93-5.262 6.193 6.193 0 0 1-.953 3.313l-.224.355 2.4 2.4a.988.988 0 0 1 .017 1.418.974.974 0 0 1-.685.269zM6.237 1.959a4.242 4.242 0 0 0-4.29 4.285 4.241 4.241 0 0 0 4.29 4.284 4.241 4.241 0 0 0 4.29-4.284 4.242 4.242 0 0 0-4.29-4.285z"/></symbol><symbol id="icon-shield" viewBox="0 0 44 51"><path fill="#a5b1bc" fill-rule="evenodd" d="M21.443 50.734C21.228 50.634.006 40.469.006 20.277V4.272L22 0l22 4.272v16.005c0 20.178-21.222 30.356-21.436 30.457L22 51zM2.648 20.277c0 16.692 15.933 25.982 19.352 27.782 3.422-1.806 19.356-11.119 19.356-27.782V6.447L22 2.687 2.648 6.447v13.83zm7.892.138l2.03-1.689 7.7 9.236 12.31-14.927 2.039 1.678L20.287 32.1z"/></symbol><symbol id="icon-visa" viewBox="0 0 52 18"><path fill="#fff" fill-rule="evenodd" d="M18.194 16.883l2.6-16.129h4.157l-2.6 16.129h-4.157zM37.419 1.148a10.223 10.223 0 0 0-3.728-.686c-4.105 0-7 2.2-7.013 5.337-.034 2.316 2.07 3.6 3.643 4.376 1.608.789 2.155 1.3 2.155 2.008-.017 1.081-1.3 1.578-2.5 1.578a8.259 8.259 0 0 1-3.9-.858l-.547-.258-.581 3.621a12.6 12.6 0 0 0 4.635.858c4.362 0 7.2-2.163 7.235-5.509.017-1.836-1.095-3.243-3.49-4.393-1.454-.738-2.343-1.236-2.343-1.99.018-.687.753-1.389 2.4-1.389a7.031 7.031 0 0 1 3.1.618l.376.171.564-3.483zm5.525 10.021c.342-.927 1.658-4.513 1.658-4.513-.016.035.342-.944.548-1.544l.291 1.388s.786 3.861.958 4.667h-3.455zM48.076.754H44.86a2.05 2.05 0 0 0-2.173 1.338l-6.174 14.791h4.362l.872-2.419h5.337c.12.567.5 2.419.5 2.419h3.849L48.076.754zm-33.354 0l-4.071 11-.444-2.233a12.333 12.333 0 0 0-5.747-6.76l3.729 14.105h4.4L19.119.754h-4.4z"/><path data-name="Shape" fill="#faa61a" fill-rule="evenodd" d="M6.871.754H.184l-.069.326c5.217 1.337 8.672 4.564 10.092 8.441L8.753 2.109A1.721 1.721 0 0 0 6.871.754z"/></symbol><symbol id="icon-vk" viewBox="0 0 32 32"><path fill="#fff" fill-rule="evenodd" d="M20.034 16.736a2.369 2.369 0 0 0-1.289-.691V16a1.868 1.868 0 0 0 .878-.729 2.048 2.048 0 0 0 .318-1.131 1.979 1.979 0 0 0-.23-.968 1.667 1.667 0 0 0-.7-.67 3.5 3.5 0 0 0-1.124-.172 9.65 9.65 0 0 0-1.112 0H13.44v8.343h3.337c.6 0 1.354.008 1.762-.032a2.165 2.165 0 0 0 1.076-.548 2.322 2.322 0 0 0 .659-.811 2.511 2.511 0 0 0 .245-1.137 1.989 1.989 0 0 0-.485-1.409zm-2.408-1.658a.7.7 0 0 1-.362.338 1.257 1.257 0 0 1-.463.123q-.225.012-.784.012h-.274v-1.838h.152q.583 0 .877.009a1.383 1.383 0 0 1 .51.1.651.651 0 0 1 .335.32.982.982 0 0 1 .108.432 1.19 1.19 0 0 1-.099.504zm.51 3.588a.865.865 0 0 1-.434.376 1.852 1.852 0 0 1-.665.158q-.327.011-1.178.011h-.116v-2.174h.4q.583 0 .93.009a1.7 1.7 0 0 1 .545.084.99.99 0 0 1 .49.344 1.063 1.063 0 0 1 .163.63 1.142 1.142 0 0 1-.135.562zm-6.191-9.674h9.109a2.954 2.954 0 0 1 2.954 2.954v9.109a2.954 2.954 0 0 1-2.954 2.955h-9.109a2.955 2.955 0 0 1-2.955-2.956v-9.108a2.954 2.954 0 0 1 2.955-2.954z"/></symbol><symbol id="icon-youtube" viewBox="0 0 32 32"><path fill="#fff" fill-rule="evenodd" d="M10.461 11.008h11.072a2.451 2.451 0 0 1 2.46 2.44v6.1a2.451 2.451 0 0 1-2.46 2.441H10.461A2.451 2.451 0 0 1 8 19.551v-6.1a2.451 2.451 0 0 1 2.461-2.443zm3.463 3.411v4.162a.5.5 0 0 0 .492.52c.491 0 3.44-2.081 3.44-2.081a.749.749 0 0 0 0-1.041 10.165 10.165 0 0 0-3.44-2.081.485.485 0 0 0-.492.521z"/></symbol></svg>