<svg xmlns="http://www.w3.org/2000/svg"><symbol id="icon-arrow-up" viewBox="0 0 36 22"><path fill="#0075b8" fill-rule="evenodd" d="M31.72 21.252l3.535-3.536-17-17-3.536 3.536z"/><path data-name="Shape 31 copy" fill="#0075b8" fill-rule="evenodd" d="M4.255 21.252L.719 17.717l17-17 3.535 3.536z"/></symbol><symbol id="icon-book" viewBox="0 0 38 54"><path fill="#a5b1bc" fill-rule="evenodd" d="M30.152 50.35a1.162 1.162 0 0 1-.841-.361 1.182 1.182 0 0 1 .839-2l3.007.011c.989 0 1.4-.005 1.667-.012a6.951 6.951 0 0 1-.007-6.684c-3.027-.005-29.21 0-29.21 0a3.338 3.338 0 0 0 0 6.676c.66-.018 1.578-.025 2.623-.025 1.136 0 6.175.03 7.244.03l1.283-.005a1.178 1.178 0 0 1 .02 2.356h-1.361c-1.1 0-6.155-.028-7.261-.028-1.014 0-1.894.005-2.513.025a5.694 5.694 0 0 1-.036-11.388H26.57c3.54 0 7.012 0 10.286.007a1.147 1.147 0 0 1 .774.3 1.187 1.187 0 0 1 .087 1.662 5.563 5.563 0 0 0-.007 7.447 1.194 1.194 0 0 1 .3.794 1.171 1.171 0 0 1-1.16 1.171l-.537.005c-.4.009-1.055.021-2.867.021zm-30.17-5.43V6.611A6.572 6.572 0 0 1 6.5 0h27.677a3.872 3.872 0 0 1 3.84 3.894v36.5h-2.323v-36.5a1.512 1.512 0 0 0-1.517-1.54H6.5a4.231 4.231 0 0 0-4.2 4.257V44.92H-.018zm27.045 9.058a1.14 1.14 0 0 1-.814-.345l-2.75-2.791-2.752 2.791a1.138 1.138 0 0 1-.813.345 1.175 1.175 0 0 1-1.167-1.178v-7.878H18.1a1.178 1.178 0 0 1-.1-2.354h10.819a1.178 1.178 0 0 1 .017 2.356H28.2V52.8a1.175 1.175 0 0 1-1.172 1.178zm-5.976-4.02l1.59-1.613a1.15 1.15 0 0 1 1.643 0l1.588 1.613v-5.036h-4.82v5.036zM6.232 37.675V3.623h2.321v34.052H6.232z"/></symbol><symbol id="icon-briefcase" viewBox="0 0 87 79"><path fill="#a5b1bc" fill-rule="evenodd" d="M19.366 78.973A19.383 19.383 0 0 1 17.427 40.3l.633-.063V18.373a7.432 7.432 0 0 1 7.333-7.336H40.16V7.319a7.432 7.432 0 0 1 7.333-7.336h10.045a7.432 7.432 0 0 1 7.333 7.336v3.719h14.766a7.432 7.432 0 0 1 7.333 7.336v36.178a7.433 7.433 0 0 1-7.333 7.336H38.6l-.09.6a19.5 19.5 0 0 1-19.144 16.485zm0-36.179a16.783 16.783 0 1 0 16.776 16.783 16.8 16.8 0 0 0-16.776-16.783zm1.6-25.819a4.133 4.133 0 0 0-.292 1.4V40.24l.631.06a19.487 19.487 0 0 1 17.418 18.3l.033.669h40.881a4.975 4.975 0 0 0 4.722-4.724V18.373a4.124 4.124 0 0 0-.292-1.4l-.541-1.513-10.758 20.583a1.3 1.3 0 0 1-.575.578l-6.023 3.013a1.311 1.311 0 0 1-.6.145h-8.735v1.709A3.36 3.36 0 0 1 53.52 44.8h-2.009a3.36 3.36 0 0 1-3.311-3.312v-1.709h-8.743a1.309 1.309 0 0 1-.591-.143l-6.032-3.017a1.291 1.291 0 0 1-.566-.569L21.5 15.461zm29.841 25.216h3.416v-7.437h-3.416v7.437zm2.713-10.049a3.36 3.36 0 0 1 3.315 3.316v1.709h8.372l5.436-2.72 10.739-20.495-.907-.192a3.94 3.94 0 0 0-.837-.11H25.393a3.971 3.971 0 0 0-.836.11l-.908.193 10.739 20.5 5.437 2.72H48.2v-1.715a3.36 3.36 0 0 1 3.315-3.316h2.005zM47.493 2.6a5.048 5.048 0 0 0-4.722 4.723v3.719h19.488V7.319A5.048 5.048 0 0 0 57.538 2.6H47.493zM28.435 69.941a1.294 1.294 0 0 1-.937-.4L22.259 64.3l-.475.3a8.259 8.259 0 0 1-4.427 1.3 8.339 8.339 0 1 1 7.065-3.9l-.3.475 5.2 5.2a1.323 1.323 0 0 1 .023 1.9 1.3 1.3 0 0 1-.91.366zm-11.078-18.1a5.729 5.729 0 1 0 5.726 5.728 5.666 5.666 0 0 0-5.726-5.73zm11.078 18.1a1.294 1.294 0 0 1-.937-.4L22.259 64.3l-.475.3a8.259 8.259 0 0 1-4.427 1.3 8.339 8.339 0 1 1 7.065-3.9l-.3.475 5.2 5.2a1.323 1.323 0 0 1 .023 1.9 1.3 1.3 0 0 1-.91.366zm-11.078-18.1a5.729 5.729 0 1 0 5.726 5.728 5.666 5.666 0 0 0-5.726-5.73zm11.078 18.1a1.294 1.294 0 0 1-.937-.4L22.259 64.3l-.475.3a8.259 8.259 0 0 1-4.427 1.3 8.339 8.339 0 1 1 7.065-3.9l-.3.475 5.2 5.2a1.323 1.323 0 0 1 .023 1.9 1.3 1.3 0 0 1-.91.366zm-11.078-18.1a5.729 5.729 0 1 0 5.726 5.728 5.666 5.666 0 0 0-5.726-5.73z"/></symbol><symbol id="icon-building" viewBox="0 0 42 58"><path fill="#a5b1bc" fill-rule="evenodd" d="M1.166 58a1.068 1.068 0 0 1-1.055-.693 1.04 1.04 0 0 1 .234-1.2L4.1 52.353a1.48 1.48 0 0 1 .822-.306h.754v-25.21h-2.63a3.01 3.01 0 0 1-3.007-3.01 3.093 3.093 0 0 1 1.132-2.4l.052-.043h.023a.26.26 0 0 1 .074-.044l.09-.088 18.2-10.19a1.336 1.336 0 0 1 .34-.13v-9.8a1.127 1.127 0 1 1 2.256 0v.36h.034l.05.03a2.63 2.63 0 0 0 1.222.278 8.316 8.316 0 0 0 1.416-.17l.23-.037a11.546 11.546 0 0 1 1.9-.194 6.372 6.372 0 0 1 2.488.492 1.174 1.174 0 0 1 .68 1.052v4.64a1.133 1.133 0 0 1-.514.9 1.1 1.1 0 0 1-.66.23 1.067 1.067 0 0 1-.4-.08 4.573 4.573 0 0 0-1.677-.308 10.084 10.084 0 0 0-1.683.187c-.225.028-.4.052-.577.077a9.49 9.49 0 0 1-1.316.12 5.612 5.612 0 0 1-1.254-.138v2.358a1.578 1.578 0 0 1 .334.12l18.144 10.222v.028l.133.133a3.01 3.01 0 0 1-1.823 5.4H36.3v25.21h.752a1.113 1.113 0 0 1 .82.306l3.82 3.76a1.112 1.112 0 0 1-.82 1.89H1.166zM38.1 55.81l-1.5-1.51H5.378l-1.5 1.505H38.1zm-4.055-3.762v-26.34a1.157 1.157 0 0 1 1.127-1.128h3.758a.772.772 0 0 0 .752-.752.7.7 0 0 0-.26-.57l-.083-.02L21.6 13.23h-1.282L2.574 23.24a.7.7 0 0 0-.28.59.772.772 0 0 0 .752.752H6.8a1.04 1.04 0 0 1 .837.36.94.94 0 0 1 .16.81v26.234h3.453V28.53a1.157 1.157 0 0 1 1.127-1.13h5.7a1.157 1.157 0 0 1 1.123 1.13v23.454h3.445V28.53a1.157 1.157 0 0 1 1.13-1.13h5.7a1.157 1.157 0 0 1 1.125 1.13v23.517h3.445zm-5.637-.063V29.66h-3.442v22.324h3.445zm-11.337 0V29.66h-3.44v22.324h3.445zM22.12 6.13l.05.032a2.634 2.634 0 0 0 1.223.278 8.336 8.336 0 0 0 1.416-.17c.162-.022.32-.046.484-.07a11.038 11.038 0 0 1 1.69-.166 5.878 5.878 0 0 1 .926.07v-2.32a4.64 4.64 0 0 0-.99-.1 8.61 8.61 0 0 0-1.666.2l-.268.035a11.627 11.627 0 0 1-1.527.128 5.594 5.594 0 0 1-1.374-.164v2.25h.034z"/></symbol><symbol id="icon-copyright--small" viewBox="0 0 34 34"><path fill="#a5b1bc" stroke="#a5b1bc" stroke-linejoin="round" fill-rule="evenodd" d="M17 32.605A15.6 15.6 0 1 1 32.6 17 15.623 15.623 0 0 1 17 32.605zm0-29.54A13.939 13.939 0 1 0 30.935 17 13.991 13.991 0 0 0 17 3.065zm0 21.8a7.858 7.858 0 1 1 5.139-13.806l-1.17 1.171a6.209 6.209 0 1 0 0 9.554l1.17 1.171a7.787 7.787 0 0 1-5.13 1.91H17z"/></symbol><symbol id="icon-copyright" viewBox="0 0 52 52"><path fill="#a5b1bc" fill-rule="evenodd" d="M26 52.009A26 26 0 1 1 52 26a26.037 26.037 0 0 1-26 26.009zm0-49.234a23.231 23.231 0 1 0 23.225 23.231A23.318 23.318 0 0 0 26 2.775zM26 39.1a13.1 13.1 0 1 1 8.566-23.01l-1.95 1.951a10.349 10.349 0 1 0 0 15.923l1.951 1.952a12.979 12.979 0 0 1-8.55 3.183H26z"/></symbol><symbol id="icon-fb" viewBox="0 0 32 32"><path fill="#fff" fill-rule="evenodd" d="M19.99 12.962h-3.074v-1.656c0-.624.8-.559 1.11-.559s1.964.007 1.964.007V7.993h-3.074c-2.938 0-3.074 2-3.074 3.313v1.656H12v2.761h1.845v8.282h3.074v-8.282h2.459z"/></symbol><symbol id="icon-file--small" viewBox="0 0 24 34"><path fill="#a5b1bc" stroke="#a5b1bc" stroke-linejoin="round" fill-rule="evenodd" d="M1.228 1.405a.7.7 0 0 0-.628.709v29.773a.7.7 0 0 0 .691.709h21.424a.7.7 0 0 0 .691-.709V7.785a.718.718 0 0 0-.206-.51L17.672 1.6a.68.68 0 0 0-.486-.2H1.293a.593.593 0 0 0-.065.005zm.756 1.418H16.5v4.962a.7.7 0 0 0 .691.709h4.837v22.684H1.984V2.823zm15.894 1l3.174 3.256h-3.175V3.82zM4.337 9.557a.71.71 0 0 0 .063 1.418H12a.709.709 0 0 0 .02-1.418H4.337zm0 5.1a.71.71 0 0 0 .063 1.417h15.2a.709.709 0 0 0 .02-1.418H4.4a.583.583 0 0 0-.063 0zm0 5.1a.71.71 0 0 0 .063 1.415h15.2a.709.709 0 0 0 .02-1.418H4.337zm0 5.1a.71.71 0 0 0 .063 1.414h15.2a.709.709 0 0 0 .02-1.418H4.4a.583.583 0 0 0-.063.001z"/></symbol><symbol id="icon-file" viewBox="0 0 38 52"><path fill="#a5b1bc" fill-rule="evenodd" d="M1.046.009A1.17 1.17 0 0 0 0 1.19v49.621a1.167 1.167 0 0 0 1.152 1.181h35.7a1.167 1.167 0 0 0 1.152-1.181V10.642a1.2 1.2 0 0 0-.342-.849L28.454.341a1.134 1.134 0 0 0-.81-.332H1.154a1.04 1.04 0 0 0-.108 0zm1.26 2.363h24.186v8.27a1.167 1.167 0 0 0 1.152 1.181h8.062V49.63h-33.4V2.371zM28.8 4.033l5.286 5.427H28.8V4.033zM6.229 13.6a1.183 1.183 0 0 0 .108 2.363h12.669a1.182 1.182 0 0 0 .033-2.363H6.337a.326.326 0 0 0-.108 0zm0 8.5a1.183 1.183 0 0 0 .108 2.363h25.338a1.182 1.182 0 0 0 .032-2.363H6.337a1.024 1.024 0 0 0-.108-.007zm0 8.5a1.183 1.183 0 0 0 .108 2.363h25.338a1.182 1.182 0 0 0 .032-2.363H6.337a.362.362 0 0 0-.108-.009zm0 8.5a1.183 1.183 0 0 0 .108 2.363h25.338a1.182 1.182 0 0 0 .032-2.363H6.337a1.024 1.024 0 0 0-.108-.01z"/></symbol><symbol id="icon-google-plus" viewBox="0 0 32 32"><path data-name="g+" fill="#fff" fill-rule="evenodd" d="M17.879 9.011H12.8s-3.852.6-3.852 3.847a3.823 3.823 0 0 0 3.2 3.761h.492a3.369 3.369 0 0 0-.082.684 1.926 1.926 0 0 0 .246.77s-2.7 0-3.934 1.538-1.393 3.419.9 4.7 7.212.854 7.95-2.479-2.7-4.188-2.787-5.214 2.213-1.453 2.213-3.59-.746-2.478-.746-2.478-.164-.085 0-.085h.328s.082.085.41-.171.738-.6.738-.6a1.175 1.175 0 0 0 .246-.342 1.178 1.178 0 0 0-.243-.341zm-5.327 1.368a1.682 1.682 0 0 0-1.311 1.881c0 1.709 1.229 3.163 2.213 3.163s1.393-1.368 1.393-2.052-.738-2.992-2.295-2.992zm.574 8.8s-2.868.342-2.868 2.223 2.459 2.051 2.787 2.051a3.092 3.092 0 0 0 2.295-.684 2.239 2.239 0 0 0 .492-1.881 6.808 6.808 0 0 0-1.721-1.539 3.812 3.812 0 0 0-.985-.166zm5.074-3.662h6.245a.907.907 0 0 1 .568.591v.6a.9.9 0 0 1-.568.587H18.2a.787.787 0 0 1-.481-.587l-.086-.6a.907.907 0 0 1 .567-.591zm3.974-2.366v6.506a.906.906 0 0 1-.568.591h-.571a.906.906 0 0 1-.568-.591v-6.506a.905.905 0 0 1 .568-.591h.565a.905.905 0 0 1 .571.591z"/></symbol><symbol id="icon-hamburger" viewBox="0 0 15 13"><path fill="#fff" fill-rule="evenodd" d="M0 13v-3h15v3H0z"/><path data-name="Shape 525 copy" fill="#fff" fill-rule="evenodd" d="M0 8V5h15v3H0z"/><path data-name="Shape 525 copy 2" fill="#fff" fill-rule="evenodd" d="M0 3V0h15v3H0z"/></symbol><symbol id="icon-magnifier--big" viewBox="0 0 52 52"><path fill="#a5b1bc" fill-rule="evenodd" d="M7.633 52a7.03 7.03 0 0 1-5.04-2.09l-.536-.543a7.328 7.328 0 0 1 0-10.194l9.614-9.724h-1.117l1.375-.916A20.706 20.706 0 1 1 31.28 41.912a20.335 20.335 0 0 1-8.18-1.737l-.558-.244-9.865 9.98A7.03 7.03 0 0 1 7.633 52zM3.955 41.09a4.492 4.492 0 0 0 0 6.295l.538.544a4.467 4.467 0 0 0 6.223 0L20 38.47l-.857-.62a20.887 20.887 0 0 1-5.15-5.38l-.606-.92zM31.22 2.776a18.18 18.18 0 1 0 17.973 18.18A18.1 18.1 0 0 0 31.22 2.775zm9.43 12.86a9.656 9.656 0 0 0-7.22-5.076V7.814a10.98 10.98 0 0 1 9.807 6.826z"/></symbol><symbol id="icon-magnifier" viewBox="0 0 49 48"><path fill="#a5b1bc" fill-rule="evenodd" d="M4.847 48a4.686 4.686 0 0 1-3.455-8.026l4.215-4.04V1.139A1.094 1.094 0 0 1 6.773-.006h15.213a1.952 1.952 0 0 1 1 .422l2.434 3.761h22.427a1.1 1.1 0 0 1 1.167 1.145v36.056a1.107 1.107 0 0 1-1.167 1.145H12.415L8.3 46.661A5.339 5.339 0 0 1 4.847 48zm3.942-10.9a3.026 3.026 0 0 0-1.821.716l-3.94 3.871a2.457 2.457 0 0 0 0 3.474 2.5 2.5 0 0 0 1.769.7 2.5 2.5 0 0 0 1.768-.7l3.955-3.884a2.457 2.457 0 0 0 0-3.473 2.714 2.714 0 0 0-1.731-.704zm37.891 3.232V11.747H28.375a1.182 1.182 0 0 1-.938-.564L21.5 2.284H8.143v32.624a3.646 3.646 0 0 1 .757-.054h.042l3.12-3.064a11.963 11.963 0 0 1-1.587-5.85 12.163 12.163 0 0 1 12.221-12 12.614 12.614 0 0 1 8.623 3.528 11.636 11.636 0 0 1 3.6 8.475 12.159 12.159 0 0 1-3.592 8.469 11.9 11.9 0 0 1-8.627 3.53 12.531 12.531 0 0 1-5.957-1.558l-3.12 3.065a4.344 4.344 0 0 1-.064.883H46.68zm-35.3-4.762a4.738 4.738 0 0 1 1.5 1.487l1.891-1.857a9.428 9.428 0 0 0-.336-.285c-.155-.127-.312-.255-.467-.407a8.308 8.308 0 0 1-.723-.774zm11.215-19.441a9.913 9.913 0 0 0-6.995 2.844 9.527 9.527 0 0 0-2.2 10.417 9.924 9.924 0 0 0 16.179 3.416 9.761 9.761 0 0 0-6.984-16.677zM46.68 9.456V6.468H26.834l2.028 2.988H46.68zM17.422 22.005a1.168 1.168 0 0 1-.818-.342 1.1 1.1 0 0 1 0-1.606 8.589 8.589 0 0 1 11.98 0 1.1 1.1 0 0 1 0 1.606 1.149 1.149 0 0 1-1.636 0 6 6 0 0 0-4.354-1.749 6 6 0 0 0-4.355 1.749 1.167 1.167 0 0 1-.817.342z"/></symbol><symbol id="icon-map--red" viewBox="0 0 11 13"><path data-name="Shape 10 copy" fill="#ff1037" fill-rule="evenodd" d="M1.614 1.611a5.491 5.491 0 0 1 7.773 0 5.477 5.477 0 0 1 0 7.764 3 3 0 0 1-.222.222l-3.228 3.225a.644.644 0 0 1-.888 0l-3.48-3.476a5.5 5.5 0 0 1 .044-7.735zM2.5 2.5a4.228 4.228 0 0 0-.03 5.96l3.02 3.017L8.261 8.71c.089-.074.163-.148.239-.221a4.238 4.238 0 0 0-6-5.989zm3.007 1.167A1.826 1.826 0 1 1 3.671 5.5a1.831 1.831 0 0 1 1.836-1.833z"/></symbol><symbol id="icon-map" viewBox="0 0 11 13"><path data-name="Shape 10 copy" fill="#fff" fill-rule="evenodd" d="M1.614 1.611a5.491 5.491 0 0 1 7.773 0 5.477 5.477 0 0 1 0 7.764 3 3 0 0 1-.222.222l-3.228 3.225a.644.644 0 0 1-.888 0l-3.48-3.476a5.5 5.5 0 0 1 .044-7.735zM2.5 2.5a4.228 4.228 0 0 0-.03 5.96l3.02 3.017L8.261 8.71c.089-.074.163-.148.239-.221a4.238 4.238 0 0 0-6-5.989zm3.007 1.167A1.826 1.826 0 1 1 3.671 5.5a1.831 1.831 0 0 1 1.836-1.833z"/></symbol><symbol id="icon-policeman" viewBox="0 0 46 53"><path fill="#a5b1bc" fill-rule="evenodd" d="M22.47 30.193A12.872 12.872 0 0 1 10.384 17.24V2.6A2.582 2.582 0 0 1 13-.005h20.068a2.582 2.582 0 0 1 2.615 2.6v14.927a12.65 12.65 0 0 1-12.65 12.67h-.564zM12.716 17.17a10.428 10.428 0 0 0 9.776 10.56c.17.01.342.012.513.012a10.238 10.238 0 0 0 10.263-9.726h-.06V13.07a17.275 17.275 0 0 1-10.247 3.116 17.275 17.275 0 0 1-10.246-3.116v4.1zm1.95-5.63a15.23 15.23 0 0 0 8.367 2.322 14.918 14.918 0 0 0 8.326-2.322H14.666zM33.35 9.216V2.6a.18.18 0 0 0-.212-.21H13a.18.18 0 0 0-.212.21v6.616H33.35zM22.546 52.93l20.04-19.964 1.262 1.644A8.85 8.85 0 0 1 46 40.4v9.222a3.32 3.32 0 0 1-3.322 3.308H22.546zm20.2-2.394a.918.918 0 0 0 .918-.915V40.4a6.62 6.62 0 0 0-1.25-3.83L28.4 50.537h14.35zM3.32 53A3.32 3.32 0 0 1 0 49.692v-9.22a9.11 9.11 0 0 1 9.113-9.082h26.633L14.413 52.64v.29l-.495.07h-10.6zm5.793-19.287A6.707 6.707 0 0 0 2.4 40.4v9.222a.918.918 0 0 0 .918.915h9.83l16.82-16.824H9.114z"/></symbol><symbol id="icon-scales" viewBox="0 0 52 52"><path fill="#a5b1bc" fill-rule="evenodd" d="M9.027 52.005a1.114 1.114 0 1 1 0-2.227h33.862a1.114 1.114 0 1 1 0 2.227H9.027zM18.1 47.25a1.116 1.116 0 0 1-1.116-1.113v-.655a5.514 5.514 0 0 1 5.25-5.523V7.611a16.936 16.936 0 0 0-9.172 3.6 10.547 10.547 0 0 1-3.372 1.85l6.488 14.045a1.14 1.14 0 0 1 .046.131l.005.107v.079a1.072 1.072 0 0 1 0 .125v.454a8.068 8.068 0 0 1-8.111 7.869h-.237A8.118 8.118 0 0 1 0 27.539a.865.865 0 0 1 0-.122v-.142a.833.833 0 0 1 .05-.162l6.392-14a16.316 16.316 0 0 1-3.852-1.43 1.114 1.114 0 0 1 .992-2 10.569 10.569 0 0 0 4.43 1.395h.149c1.325-.031 2.238-.653 3.617-1.664a19.443 19.443 0 0 1 10.869-4.075A3.712 3.712 0 0 1 27.794.471a3.7 3.7 0 0 1 1.521 4.868A19.442 19.442 0 0 1 40.143 9.4c1.32.959 2.264 1.644 3.629 1.676h.141a10.661 10.661 0 0 0 4.431-1.394 1.114 1.114 0 1 1 .989 2 16.253 16.253 0 0 1-3.849 1.418l6.41 14.026a1.118 1.118 0 0 1 .046.129v.148c.016.025.06.107.06.107v.035a8.116 8.116 0 0 1-7.882 7.866h-.236a8.068 8.068 0 0 1-8.111-7.87.99.99 0 0 1 0-.13v-.136a.833.833 0 0 1 .049-.162l6.418-14.049a10.552 10.552 0 0 1-3.374-1.851 16.935 16.935 0 0 0-9.2-3.608v32.354a5.514 5.514 0 0 1 5.25 5.523v.655a1.116 1.116 0 0 1-1.116 1.113H18.1zm14.559-2.2a3.3 3.3 0 0 0-3.284-2.868h-6.831a3.3 3.3 0 0 0-3.291 2.868h13.409zm-5.22-5.1V7.46c-.475-.03-.966-.03-1.483-.03-.287 0-.565.01-.837.02-.219.008-.434.016-.646.018v32.486h2.966zm10.653-11.267a5.872 5.872 0 0 0 11.531 0H38.092zm-35.773-.039a5.878 5.878 0 0 0 5.75 4.756H8.2v.037a5.861 5.861 0 0 0 5.659-4.8H2.319zm46.791-2.182l-5.269-11.6-5.269 11.6H49.11zm-35.772 0l-5.27-11.6-5.263 11.6h10.533zm12.62-24.239A1.48 1.48 0 1 0 27.441 3.7a1.483 1.483 0 0 0-1.483-1.477z"/></symbol><symbol id="icon-scroll--small" viewBox="0 0 35 30"><path fill="#a5b1bc" stroke="#a5b1bc" stroke-linejoin="round" fill-rule="evenodd" d="M5.86 29.4A4.8 4.8 0 0 1 1 24.692v-2.966a.731.731 0 0 1 .742-.718H5.9V4.8a1.7 1.7 0 0 1 1.727-1.663h15.655l.226.026.192-.175a4.127 4.127 0 0 1 3.769-2.4 4.061 4.061 0 0 1 4.123 3.992 3.847 3.847 0 0 1-.235 1.271l-.057.176.136.13 2.452 3.587a.7.7 0 0 1 .014.767.741.741 0 0 1-.628.343l-1.8-.182-.523 1.59a.73.73 0 0 1-.608.491h-.032a.783.783 0 0 1-.69-.32l-1.16-1.725v13.23a5.548 5.548 0 0 1-4.814 5.4 1.014 1.014 0 0 1-.31.068H5.86zm-3.383-4.71a3.334 3.334 0 0 0 3.381 3.277h13.93l-.359-.467a4.588 4.588 0 0 1-.959-2.8v-2.257H2.477v2.247zm4.86-17.837l.051.247v13.908h11.824a.731.731 0 0 1 .742.718v2.966a3.294 3.294 0 0 0 3.1 3.248 4.1 4.1 0 0 0 3.927-4V10.709l-1.163 1.724a.75.75 0 0 1-.622.327.773.773 0 0 1-.708-.5l-.523-1.588-1.731.18a.775.775 0 0 1-.693-.339.706.706 0 0 1 .012-.768L23.8 6.392l-.07-.148a3.891 3.891 0 0 1-.358-1.394l-.019-.276H7.319zm22.871.685a4.12 4.12 0 0 1-1.184.733l-.341.135 1.328 1.976.2-.593a.786.786 0 0 1 .749-.612l.64.066-.158-.505-.968-1.431zm-5.729 1.639a.741.741 0 0 1 .714.5l.194.595.39-.411.917-1.361-.394-.115a4.121 4.121 0 0 1-1.27-.607l-.26-.186-1.123 1.667zm2.991-7.15a2.664 2.664 0 0 0-1.865.749 2.5 2.5 0 0 0-.771 1.8 2.639 2.639 0 0 0 5.275 0 2.6 2.6 0 0 0-2.64-2.549z"/></symbol><symbol id="icon-scroll" viewBox="0 0 55 48"><path fill="#a5b1bc" fill-rule="evenodd" d="M8.1 48.006a7.992 7.992 0 0 1-8.108-7.853V35.21a1.218 1.218 0 0 1 1.236-1.2h6.946V7.006a2.828 2.828 0 0 1 2.87-2.779h26.092l.378.044.321-.292a6.879 6.879 0 0 1 6.281-3.992 6.768 6.768 0 0 1 6.87 6.647 6.414 6.414 0 0 1-.392 2.119l-.1.293.226.217 4.087 5.978a1.169 1.169 0 0 1 .022 1.278 1.234 1.234 0 0 1-1.046.572l-2.992-.3-.872 2.65a1.216 1.216 0 0 1-1.014.818h-.053a1.3 1.3 0 0 1-1.151-.533l-1.933-2.875V38.9a9.247 9.247 0 0 1-8.024 9 1.687 1.687 0 0 1-.517.113H8.1zm-5.638-7.855A5.556 5.556 0 0 0 8.1 45.612h23.214l-.6-.787a7.646 7.646 0 0 1-1.6-4.675V36.4H2.462v3.746zm8.1-29.729l.086.41v23.182h19.705a1.218 1.218 0 0 1 1.237 1.2v4.944a5.49 5.49 0 0 0 5.161 5.413A6.828 6.828 0 0 0 43.3 38.9V16.849l-1.94 2.871a1.25 1.25 0 0 1-1.036.545 1.288 1.288 0 0 1-1.18-.832l-.872-2.647s-2.875.3-2.885.3a1.291 1.291 0 0 1-1.155-.564 1.177 1.177 0 0 1 .02-1.28l3.757-5.589-.117-.247a6.48 6.48 0 0 1-.6-2.323l-.032-.46H10.531zm38.12 1.142a6.869 6.869 0 0 1-1.973 1.222l-.569.225 2.213 3.289.328-.988a1.31 1.31 0 0 1 1.247-1.02l1.066.11-.263-.842-1.608-2.385zm-9.55 2.736a1.236 1.236 0 0 1 1.19.832l.323.991.651-.685 1.528-2.27-.656-.188a6.873 6.873 0 0 1-2.117-1.012l-.435-.311-1.871 2.778zm4.984-11.921a4.441 4.441 0 0 0-3.108 1.249 4.16 4.16 0 0 0-1.285 3.007 4.4 4.4 0 0 0 8.791 0 4.333 4.333 0 0 0-4.398-4.256z"/></symbol><symbol id="icon-search" viewBox="0 0 14 14"><path data-name="Shape 17 copy" fill="#69859a" fill-rule="evenodd" d="M13.039 14a.971.971 0 0 1-.7-.3L9.91 11.282l-.356.225a6.222 6.222 0 1 1 2.93-5.262 6.193 6.193 0 0 1-.953 3.313l-.224.355 2.4 2.4a.988.988 0 0 1 .017 1.418.974.974 0 0 1-.685.269zM6.237 1.959a4.242 4.242 0 0 0-4.29 4.285 4.241 4.241 0 0 0 4.29 4.284 4.241 4.241 0 0 0 4.29-4.284 4.242 4.242 0 0 0-4.29-4.285zM13.039 14a.971.971 0 0 1-.7-.3L9.91 11.282l-.356.225a6.222 6.222 0 1 1 2.93-5.262 6.193 6.193 0 0 1-.953 3.313l-.224.355 2.4 2.4a.988.988 0 0 1 .017 1.418.974.974 0 0 1-.685.269zM6.237 1.959a4.242 4.242 0 0 0-4.29 4.285 4.241 4.241 0 0 0 4.29 4.284 4.241 4.241 0 0 0 4.29-4.284 4.242 4.242 0 0 0-4.29-4.285zM13.039 14a.971.971 0 0 1-.7-.3L9.91 11.282l-.356.225a6.222 6.222 0 1 1 2.93-5.262 6.193 6.193 0 0 1-.953 3.313l-.224.355 2.4 2.4a.988.988 0 0 1 .017 1.418.974.974 0 0 1-.685.269zM6.237 1.959a4.242 4.242 0 0 0-4.29 4.285 4.241 4.241 0 0 0 4.29 4.284 4.241 4.241 0 0 0 4.29-4.284 4.242 4.242 0 0 0-4.29-4.285z"/></symbol><symbol id="icon-shield--small" viewBox="0 0 28 33"><path fill="#a5b1bc" stroke="#a5b1bc" stroke-linejoin="round" fill-rule="evenodd" d="M13.665 31.64C13.537 31.58.8 25.481.8 13.366v-9.6L14 1.2l13.2 2.563v9.6c0 12.107-12.733 18.214-12.862 18.274L14 31.8zM2.389 13.366c0 10.015 9.56 15.589 11.613 16.669 2.053-1.083 11.614-6.671 11.614-16.669v-8.3L14 2.812 2.389 5.068v8.3zm4.735.083l1.218-1.013 4.623 5.542 7.383-8.957 1.224 1.007-8.6 10.432z"/></symbol><symbol id="icon-shield" viewBox="0 0 44 51"><path fill="#a5b1bc" fill-rule="evenodd" d="M21.443 50.734C21.228 50.634.006 40.469.006 20.277V4.272L22 0l22 4.272v16.005c0 20.178-21.222 30.356-21.436 30.457L22 51zM2.648 20.277c0 16.692 15.933 25.982 19.352 27.782 3.422-1.806 19.356-11.119 19.356-27.782V6.447L22 2.687 2.648 6.447v13.83zm7.892.138l2.03-1.689 7.7 9.236 12.31-14.927 2.039 1.678L20.287 32.1z"/></symbol><symbol id="icon-speech-bubbles" viewBox="0 0 80 75"><path fill="#a5b1bc" fill-rule="evenodd" d="M70.08 75a1.314 1.314 0 0 1-.88-.33l-9.1-8.28-15.5-.09a5.162 5.162 0 0 1-5.06-5.23V47.44h-9.36L13.37 64.3a1.342 1.342 0 0 1-.93.37 1.255 1.255 0 0 1-1.27-1.42l1.58-15.81h-6.3A6.464 6.464 0 0 1 0 40.97V6.47A6.464 6.464 0 0 1 6.45 0h53.29a6.464 6.464 0 0 1 6.45 6.47V32.8l8.73.03a5.16 5.16 0 0 1 5.08 5.2v23.13a5.157 5.157 0 0 1-5.08 5.22h-4.29l.72 7.19a1.34 1.34 0 0 1-.7 1.3 1.327 1.327 0 0 1-.57.13zm-9.49-11.2a1.29 1.29 0 0 1 .86.32l6.97 6.35-.51-5.26a1.293 1.293 0 0 1 .35-.96 1.277 1.277 0 0 1 .94-.45h5.72a2.547 2.547 0 0 0 2.5-2.64V38.03a2.5 2.5 0 0 0-2.5-2.61l-30.33-.09a2.544 2.544 0 0 0-2.47 2.65v23.09a2.53 2.53 0 0 0 2.5 2.65zm-46.4-18.95a1.3 1.3 0 0 1 .93.44 1.252 1.252 0 0 1 .35.97l-1.35 13.66 14.63-14.68a1.28 1.28 0 0 1 .91-.39h9.88v-6.87a5.15 5.15 0 0 1 5.06-5.23l19.01.05V6.47a3.83 3.83 0 0 0-3.87-3.88H6.45a3.83 3.83 0 0 0-3.87 3.88v34.5a3.837 3.837 0 0 0 3.87 3.88h7.74zm44.69 15.5a1.3 1.3 0 1 1 1.29-1.3 1.287 1.287 0 0 1-1.29 1.3zm0-5.18a1.285 1.285 0 0 1-1.28-1.29v-13.8a1.285 1.285 0 1 1 2.57 0v13.8a1.287 1.287 0 0 1-1.29 1.29zM30.52 40.51a1.3 1.3 0 1 1 1.29-1.29 1.293 1.293 0 0 1-1.29 1.29zm0-5.15a1.276 1.276 0 0 1-.9-.41 1.214 1.214 0 0 1-.39-.9c0-5.24 2.33-7.83 4.72-10.04l.29-.27c2-1.84 3.58-3.29 3.58-8.16 0-3.37-3.31-6.12-7.38-6.12-3.47 0-6.6 2.12-7.27 4.94a1.4 1.4 0 0 1-1.33 1.12 1.153 1.153 0 0 1-.26-.03 1.272 1.272 0 0 1-.79-.64 1.292 1.292 0 0 1-.13-1.02c.99-4.11 5-6.96 9.78-6.96 5.49 0 9.96 3.91 9.96 8.71a12.778 12.778 0 0 1-4.72 10.33l-.37.34c-1.96 1.79-3.5 3.21-3.5 7.79a1.37 1.37 0 0 1-1.29 1.32z"/></symbol><symbol id="icon-visa" viewBox="0 0 52 18"><path fill="#fff" fill-rule="evenodd" d="M18.194 16.883l2.6-16.129h4.157l-2.6 16.129h-4.157zM37.419 1.148a10.223 10.223 0 0 0-3.728-.686c-4.105 0-7 2.2-7.013 5.337-.034 2.316 2.07 3.6 3.643 4.376 1.608.789 2.155 1.3 2.155 2.008-.017 1.081-1.3 1.578-2.5 1.578a8.259 8.259 0 0 1-3.9-.858l-.547-.258-.581 3.621a12.6 12.6 0 0 0 4.635.858c4.362 0 7.2-2.163 7.235-5.509.017-1.836-1.095-3.243-3.49-4.393-1.454-.738-2.343-1.236-2.343-1.99.018-.687.753-1.389 2.4-1.389a7.031 7.031 0 0 1 3.1.618l.376.171.564-3.483zm5.525 10.021c.342-.927 1.658-4.513 1.658-4.513-.016.035.342-.944.548-1.544l.291 1.388s.786 3.861.958 4.667h-3.455zM48.076.754H44.86a2.05 2.05 0 0 0-2.173 1.338l-6.174 14.791h4.362l.872-2.419h5.337c.12.567.5 2.419.5 2.419h3.849L48.076.754zm-33.354 0l-4.071 11-.444-2.233a12.333 12.333 0 0 0-5.747-6.76l3.729 14.105h4.4L19.119.754h-4.4z"/><path data-name="Shape" fill="#faa61a" fill-rule="evenodd" d="M6.871.754H.184l-.069.326c5.217 1.337 8.672 4.564 10.092 8.441L8.753 2.109A1.721 1.721 0 0 0 6.871.754z"/></symbol><symbol id="icon-vk" viewBox="0 0 32 32"><path fill="#fff" fill-rule="evenodd" d="M20.034 16.736a2.369 2.369 0 0 0-1.289-.691V16a1.868 1.868 0 0 0 .878-.729 2.048 2.048 0 0 0 .318-1.131 1.979 1.979 0 0 0-.23-.968 1.667 1.667 0 0 0-.7-.67 3.5 3.5 0 0 0-1.124-.172 9.65 9.65 0 0 0-1.112 0H13.44v8.343h3.337c.6 0 1.354.008 1.762-.032a2.165 2.165 0 0 0 1.076-.548 2.322 2.322 0 0 0 .659-.811 2.511 2.511 0 0 0 .245-1.137 1.989 1.989 0 0 0-.485-1.409zm-2.408-1.658a.7.7 0 0 1-.362.338 1.257 1.257 0 0 1-.463.123q-.225.012-.784.012h-.274v-1.838h.152q.583 0 .877.009a1.383 1.383 0 0 1 .51.1.651.651 0 0 1 .335.32.982.982 0 0 1 .108.432 1.19 1.19 0 0 1-.099.504zm.51 3.588a.865.865 0 0 1-.434.376 1.852 1.852 0 0 1-.665.158q-.327.011-1.178.011h-.116v-2.174h.4q.583 0 .93.009a1.7 1.7 0 0 1 .545.084.99.99 0 0 1 .49.344 1.063 1.063 0 0 1 .163.63 1.142 1.142 0 0 1-.135.562zm-6.191-9.674h9.109a2.954 2.954 0 0 1 2.954 2.954v9.109a2.954 2.954 0 0 1-2.954 2.955h-9.109a2.955 2.955 0 0 1-2.955-2.956v-9.108a2.954 2.954 0 0 1 2.955-2.954z"/></symbol><symbol id="icon-youtube" viewBox="0 0 32 32"><path fill="#fff" fill-rule="evenodd" d="M10.461 11.008h11.072a2.451 2.451 0 0 1 2.46 2.44v6.1a2.451 2.451 0 0 1-2.46 2.441H10.461A2.451 2.451 0 0 1 8 19.551v-6.1a2.451 2.451 0 0 1 2.461-2.443zm3.463 3.411v4.162a.5.5 0 0 0 .492.52c.491 0 3.44-2.081 3.44-2.081a.749.749 0 0 0 0-1.041 10.165 10.165 0 0 0-3.44-2.081.485.485 0 0 0-.492.521z"/></symbol></svg>