<svg xmlns="http://www.w3.org/2000/svg"><defs><style>.cls-1{fill:#a5b1bc;fill-rule:evenodd}</style><style>.cls-1{fill:#a5b1bc;fill-rule:evenodd}</style><style>.cls-1{fill:#a5b1bc;fill-rule:evenodd}</style><style>.cls-1{fill:#a5b1bc;fill-rule:evenodd}</style><style>.cls-1,.cls-2{fill:#a5b1bc}.cls-1{fill-rule:evenodd}.cls-2{font-size:22px;font-family:"Proxima Nova";font-weight:600}</style></defs><symbol id="icon-service--copyrights" viewBox="0 0 52 52"><path class="cls-1" d="M26 52.009A26 26 0 1 1 52 26a26.037 26.037 0 0 1-26 26.009zm0-49.234a23.231 23.231 0 1 0 23.225 23.231A23.318 23.318 0 0 0 26 2.775zM26 39.1a13.1 13.1 0 1 1 8.566-23.01l-1.95 1.951a10.349 10.349 0 1 0 0 15.923l1.951 1.952a12.979 12.979 0 0 1-8.55 3.183H26z"/></symbol><symbol id="icon-service--intellectual-rights" viewBox="0 0 44 51"><path class="cls-1" d="M21.443 50.734C21.228 50.634.006 40.469.006 20.277V4.272L22 0l22 4.272v16.005c0 20.178-21.222 30.356-21.436 30.457L22 51zM2.648 20.277c0 16.692 15.933 25.982 19.352 27.782 3.422-1.806 19.356-11.119 19.356-27.782V6.447L22 2.687 2.648 6.447v13.83zm7.892.138l2.03-1.689 7.7 9.236 12.31-14.927 2.039 1.678L20.287 32.1z"/></symbol><symbol id="icon-service--patent-research" viewBox="0 0 49 48"><path class="cls-1" d="M4.847 48a4.686 4.686 0 0 1-3.455-8.026l4.215-4.04V1.139A1.094 1.094 0 0 1 6.773-.006h15.213a1.952 1.952 0 0 1 1 .422l2.434 3.761h22.427a1.1 1.1 0 0 1 1.167 1.145v36.056a1.107 1.107 0 0 1-1.167 1.145H12.415L8.3 46.661A5.339 5.339 0 0 1 4.847 48zm3.942-10.9a3.026 3.026 0 0 0-1.821.716l-3.94 3.871a2.457 2.457 0 0 0 0 3.474 2.5 2.5 0 0 0 1.769.7 2.5 2.5 0 0 0 1.768-.7l3.955-3.884a2.457 2.457 0 0 0 0-3.473 2.714 2.714 0 0 0-1.731-.704zm37.891 3.232V11.747H28.375a1.182 1.182 0 0 1-.938-.564L21.5 2.284H8.143v32.624a3.646 3.646 0 0 1 .757-.054h.042l3.12-3.064a11.963 11.963 0 0 1-1.587-5.85 12.163 12.163 0 0 1 12.221-12 12.614 12.614 0 0 1 8.623 3.528 11.636 11.636 0 0 1 3.6 8.475 12.159 12.159 0 0 1-3.592 8.469 11.9 11.9 0 0 1-8.627 3.53 12.531 12.531 0 0 1-5.957-1.558l-3.12 3.065a4.344 4.344 0 0 1-.064.883H46.68zm-35.3-4.762a4.738 4.738 0 0 1 1.5 1.487l1.891-1.857a9.428 9.428 0 0 0-.336-.285c-.155-.127-.312-.255-.467-.407a8.308 8.308 0 0 1-.723-.774zm11.215-19.441a9.913 9.913 0 0 0-6.995 2.844 9.527 9.527 0 0 0-2.2 10.417 9.924 9.924 0 0 0 16.179 3.416 9.761 9.761 0 0 0-6.984-16.677zM46.68 9.456V6.468H26.834l2.028 2.988H46.68zM17.422 22.005a1.168 1.168 0 0 1-.818-.342 1.1 1.1 0 0 1 0-1.606 8.589 8.589 0 0 1 11.98 0 1.1 1.1 0 0 1 0 1.606 1.149 1.149 0 0 1-1.636 0 6 6 0 0 0-4.354-1.749 6 6 0 0 0-4.355 1.749 1.167 1.167 0 0 1-.817.342z"/></symbol><symbol id="icon-service--patenting" viewBox="0 0 55 48"><path class="cls-1" d="M8.1 48.006a7.992 7.992 0 0 1-8.108-7.853V35.21a1.218 1.218 0 0 1 1.236-1.2h6.946V7.006a2.828 2.828 0 0 1 2.87-2.779h26.092l.378.044.321-.292a6.879 6.879 0 0 1 6.281-3.992 6.768 6.768 0 0 1 6.87 6.647 6.414 6.414 0 0 1-.392 2.119l-.1.293.226.217 4.087 5.978a1.169 1.169 0 0 1 .022 1.278 1.234 1.234 0 0 1-1.046.572l-2.992-.3-.872 2.65a1.216 1.216 0 0 1-1.014.818h-.053a1.3 1.3 0 0 1-1.151-.533l-1.933-2.875V38.9a9.247 9.247 0 0 1-8.024 9 1.687 1.687 0 0 1-.517.113H8.1zm-5.638-7.855A5.556 5.556 0 0 0 8.1 45.612h23.214l-.6-.787a7.646 7.646 0 0 1-1.6-4.675V36.4H2.462v3.746zm8.1-29.729l.086.41v23.182h19.705a1.218 1.218 0 0 1 1.237 1.2v4.944a5.49 5.49 0 0 0 5.161 5.413A6.828 6.828 0 0 0 43.3 38.9V16.849l-1.94 2.871a1.25 1.25 0 0 1-1.036.545 1.288 1.288 0 0 1-1.18-.832l-.872-2.647s-2.875.3-2.885.3a1.291 1.291 0 0 1-1.155-.564 1.177 1.177 0 0 1 .02-1.28l3.757-5.589-.117-.247a6.48 6.48 0 0 1-.6-2.323l-.032-.46H10.531zm38.12 1.142a6.869 6.869 0 0 1-1.973 1.222l-.569.225 2.213 3.289.328-.988a1.31 1.31 0 0 1 1.247-1.02l1.066.11-.263-.842-1.608-2.385zm-9.55 2.736a1.236 1.236 0 0 1 1.19.832l.323.991.651-.685 1.528-2.27-.656-.188a6.873 6.873 0 0 1-2.117-1.012l-.435-.311-1.871 2.778zm4.984-11.921a4.441 4.441 0 0 0-3.108 1.249 4.16 4.16 0 0 0-1.285 3.007 4.4 4.4 0 0 0 8.791 0 4.333 4.333 0 0 0-4.398-4.256z"/></symbol><symbol id="icon-service--trademark" viewBox="0 0 52 52"><path class="cls-1" d="M26 52.009A26 26 0 1 1 52 26a26.037 26.037 0 0 1-26 26.009zm0-49.234a23.231 23.231 0 1 0 23.225 23.231A23.318 23.318 0 0 0 26 2.775z"/><text id="TM" class="cls-2" x="10" y="19.07">TM</text></symbol></svg>